<?xml version="1.0" encoding="UTF-8"?>
<svg xmlns="http://www.w3.org/2000/svg" viewBox="0 0 1170 200" fill="currentColor">
  <polygon points="9.5 177 33.48 42.5 199.83 121.49 212.5 177 9.5 177"/>
  <g>
    <path d="M337.25,99.79l-27.2,1.67c-.46-2.32-1.46-4.43-3-6.31-1.53-1.88-3.55-3.39-6.03-4.53-2.49-1.14-5.45-1.71-8.89-1.71-4.6,0-8.49.96-11.65,2.89-3.16,1.93-4.74,4.5-4.74,7.71,0,2.56,1.02,4.72,3.07,6.49,2.05,1.77,5.56,3.19,10.53,4.25l19.39,3.91c10.42,2.14,18.18,5.58,23.29,10.32,5.11,4.74,7.67,10.97,7.67,18.69,0,7.02-2.06,13.18-6.17,18.48-4.12,5.3-9.74,9.43-16.88,12.38-7.14,2.95-15.36,4.43-24.65,4.43-14.18,0-25.47-2.96-33.86-8.89-8.39-5.93-13.31-14.01-14.75-24.24l29.22-1.54c.88,4.32,3.02,7.61,6.42,9.87,3.39,2.26,7.74,3.38,13.04,3.38s9.4-1.01,12.59-3.03c3.18-2.02,4.8-4.64,4.85-7.85-.05-2.7-1.19-4.92-3.42-6.66-2.23-1.74-5.67-3.08-10.32-4.01l-18.55-3.7c-10.46-2.09-18.24-5.72-23.33-10.88-5.09-5.16-7.64-11.74-7.64-19.74,0-6.88,1.87-12.81,5.61-17.78,3.74-4.97,9.02-8.81,15.83-11.51,6.81-2.7,14.8-4.04,23.96-4.04,13.53,0,24.19,2.86,31.98,8.58,7.79,5.72,12.33,13.51,13.63,23.36Z"/>
    <path d="M383.11,178.39c-6.83,0-12.93-1.2-18.27-3.59-5.35-2.39-9.57-5.95-12.66-10.67-3.09-4.72-4.64-10.61-4.64-17.68,0-5.95,1.09-10.95,3.28-15,2.18-4.04,5.16-7.3,8.93-9.76,3.77-2.46,8.06-4.32,12.87-5.58,4.81-1.25,9.87-2.14,15.17-2.65,6.23-.65,11.25-1.27,15.06-1.85,3.81-.58,6.58-1.45,8.3-2.62,1.72-1.16,2.58-2.88,2.58-5.16v-.42c0-4.42-1.38-7.83-4.15-10.25-2.77-2.42-6.68-3.63-11.75-3.63-5.35,0-9.6,1.18-12.76,3.52-3.16,2.35-5.25,5.29-6.28,8.82l-27.48-2.23c1.39-6.51,4.14-12.15,8.23-16.91,4.09-4.76,9.38-8.44,15.87-11.02s14.01-3.87,22.56-3.87c5.95,0,11.66.7,17.12,2.09,5.46,1.39,10.32,3.56,14.58,6.49,4.25,2.93,7.61,6.68,10.08,11.26,2.46,4.58,3.7,10.06,3.7,16.42v72.26h-28.18v-14.86h-.84c-1.72,3.35-4.02,6.29-6.91,8.82-2.88,2.54-6.35,4.51-10.39,5.93s-8.72,2.13-14.02,2.13ZM391.62,157.89c4.37,0,8.23-.87,11.58-2.62,3.35-1.74,5.97-4.1,7.88-7.08,1.91-2.98,2.86-6.35,2.86-10.11v-11.37c-.93.6-2.2,1.15-3.8,1.64-1.6.49-3.41.93-5.41,1.33-2,.4-4,.74-6,1.05-2,.3-3.81.57-5.44.8-3.49.51-6.53,1.33-9.14,2.44-2.6,1.12-4.63,2.62-6.07,4.5s-2.16,4.22-2.16,7.01c0,4.05,1.47,7.13,4.43,9.24,2.95,2.12,6.71,3.17,11.26,3.17Z"/>
    <path d="M549.76,99.79l-27.2,1.67c-.46-2.32-1.46-4.43-3-6.31-1.53-1.88-3.55-3.39-6.03-4.53-2.49-1.14-5.45-1.71-8.89-1.71-4.6,0-8.49.96-11.65,2.89-3.16,1.93-4.74,4.5-4.74,7.71,0,2.56,1.02,4.72,3.07,6.49,2.05,1.77,5.56,3.19,10.53,4.25l19.39,3.91c10.42,2.14,18.18,5.58,23.29,10.32,5.11,4.74,7.67,10.97,7.67,18.69,0,7.02-2.06,13.18-6.17,18.48-4.12,5.3-9.74,9.43-16.88,12.38-7.14,2.95-15.36,4.43-24.65,4.43-14.18,0-25.47-2.96-33.86-8.89-8.39-5.93-13.31-14.01-14.75-24.24l29.22-1.54c.88,4.32,3.02,7.61,6.42,9.87,3.39,2.26,7.74,3.38,13.04,3.38s9.4-1.01,12.59-3.03c3.18-2.02,4.8-4.64,4.85-7.85-.05-2.7-1.19-4.92-3.42-6.66-2.23-1.74-5.67-3.08-10.32-4.01l-18.55-3.7c-10.46-2.09-18.24-5.72-23.33-10.88-5.09-5.16-7.64-11.74-7.64-19.74,0-6.88,1.87-12.81,5.61-17.78,3.74-4.97,9.02-8.81,15.83-11.51,6.81-2.7,14.8-4.04,23.96-4.04,13.53,0,24.19,2.86,31.98,8.58,7.79,5.72,12.33,13.51,13.63,23.36Z"/>
    <path d="M594.78,114.44v61.93h-29.71V33.53h28.88v54.61h1.25c2.42-6.32,6.32-11.29,11.72-14.89,5.39-3.6,12.16-5.4,20.3-5.4,7.44,0,13.94,1.62,19.49,4.85,5.56,3.23,9.88,7.86,12.97,13.88,3.09,6.02,4.61,13.22,4.57,21.58v68.21h-29.71v-62.91c.05-6.6-1.62-11.74-4.99-15.41-3.37-3.67-8.08-5.51-14.12-5.51-4.05,0-7.61.86-10.71,2.58-3.09,1.72-5.51,4.22-7.25,7.5-1.74,3.28-2.64,7.22-2.68,11.82Z"/>
    <path d="M696.71,55.43c-4.42,0-8.2-1.46-11.33-4.39-3.14-2.93-4.71-6.46-4.71-10.6s1.58-7.68,4.74-10.64c3.16-2.95,6.93-4.43,11.3-4.43s8.2,1.46,11.33,4.39c3.14,2.93,4.71,6.46,4.71,10.6s-1.57,7.68-4.71,10.64c-3.14,2.95-6.92,4.43-11.33,4.43ZM681.79,176.37v-107.13h29.71v107.13h-29.71Z"/>
    <path d="M729.32,176.37v-107.13h28.32v18.9h1.26c2.23-6.28,5.95-11.23,11.16-14.86,5.21-3.63,11.44-5.44,18.69-5.44s13.6,1.82,18.76,5.47,8.6,8.59,10.32,14.82h1.12c2.19-6.14,6.15-11.05,11.89-14.75,5.74-3.7,12.54-5.54,20.4-5.54,10,0,18.12,3.17,24.38,9.52,6.25,6.35,9.38,15.33,9.38,26.96v72.05h-29.64v-66.19c0-5.95-1.58-10.42-4.74-13.39-3.16-2.97-7.11-4.46-11.86-4.46-5.39,0-9.6,1.71-12.62,5.13-3.02,3.42-4.53,7.92-4.53,13.5v65.42h-28.8v-66.82c0-5.25-1.5-9.44-4.5-12.55-3-3.11-6.94-4.67-11.82-4.67-3.3,0-6.27.83-8.89,2.48s-4.71,3.95-6.24,6.9c-1.53,2.95-2.3,6.41-2.3,10.36v64.3h-29.71Z"/>
    <path d="M917.46,55.43c-4.42,0-8.2-1.46-11.33-4.39-3.14-2.93-4.71-6.46-4.71-10.6s1.58-7.68,4.74-10.64c3.16-2.95,6.93-4.43,11.3-4.43s8.2,1.46,11.33,4.39c3.14,2.93,4.71,6.46,4.71,10.6s-1.57,7.68-4.71,10.64c-3.14,2.95-6.92,4.43-11.33,4.43ZM902.53,176.37v-107.13h29.71v107.13h-29.71Z"/>
    <path d="M1078.5,33.53h30.2v92.76c0,10.42-2.48,19.53-7.43,27.34-4.95,7.81-11.87,13.89-20.75,18.24-8.88,4.35-19.23,6.52-31.04,6.52s-22.23-2.17-31.11-6.52c-8.88-4.35-15.79-10.43-20.71-18.24-4.93-7.81-7.39-16.92-7.39-27.34V33.53h30.2v90.18c0,5.44,1.2,10.28,3.59,14.51,2.39,4.23,5.78,7.56,10.15,9.97,4.37,2.42,9.46,3.63,15.27,3.63s10.96-1.21,15.31-3.63c4.35-2.42,7.72-5.74,10.11-9.97,2.39-4.23,3.59-9.07,3.59-14.51V33.53Z"/>
    <path d="M1157.83,33.53v142.84h-30.2V33.53h30.2Z"/>
  </g>
</svg>